<?xml version="1.0" encoding="utf-8"?>
<!-- Generator: Adobe Illustrator 18.1.1, SVG Export Plug-In . SVG Version: 6.00 Build 0)  -->
<!DOCTYPE svg PUBLIC "-//W3C//DTD SVG 1.1//EN" "http://www.w3.org/Graphics/SVG/1.1/DTD/svg11.dtd">
<svg version="1.1" id="Layer_1" xmlns="http://www.w3.org/2000/svg" xmlns:xlink="http://www.w3.org/1999/xlink" x="0px" y="0px"
	 width="245px" height="92px" viewBox="-57 -11 245 92" enable-background="new -57 -11 245 92" xml:space="preserve">
<g>
	<path fill="#ED174C" d="M179.8-3.5c1.2-1.5,1.1-3.4,0.9-4.6c-3.5-2.3-7.8-3.1-11.8-2.1C173.1-9.7,177.1-7.2,179.8-3.5z M168.8-2.5
		c5.4,1.6,8,1.2,9.8,0c-3.1-4.2-7.8-7.2-11.8-7.1c-1.5,0.6-2.9,1.4-4.2,2.6c-1.9,1.6-3.3,3.6-4.1,5.7C160.3-2.8,163.5-4,168.8-2.5z
		 M186.5-0.8c-0.7,1.1-1.7,2.5-3.5,3.9c0.4,1.4,0.6,2.8,0.6,4.1c1.2-0.1,2.3,0.3,3.4,1.1C187.8,5.3,187.6,2.1,186.5-0.8z M180.8-2.1
		c0.7,1.1,1.3,2.3,1.8,3.6c1.5-1.1,2.7-2.3,3.4-3.6c0-0.1-0.1-0.2-0.1-0.3l0,0c-0.5-1-1.2-2-1.9-2.9c-0.6-0.7-1.3-1.3-1.9-1.9
		C182.2-5.8,182.3-3.7,180.8-2.1z M183.6,8.6c-0.1,2.9-1,5.8-2.5,8.2c0.4-0.3,0.8-0.6,1.2-0.9c2.1-1.8,3.6-4.1,4.4-6.5
		C186,9,185,8.5,183.6,8.6z M176.6,14.2c-2.9,3.8-6.9,4.4-9.4,4.3c3.8,1.4,8.2,1.3,11.9-0.6c1.9-2.5,2.9-5.7,3-9.1
		C180.4,9.6,178.7,11.3,176.6,14.2z M158.1,9L158.1,9c0.5-0.1,0.9-0.1,1.4-0.2c9.8-1.6,17.1-3.7,21.7-6.5c0-0.1,0-0.1,0-0.2
		c-0.4-1.1-0.9-2.2-1.6-3.3c-2,1.3-4.7,2-10,0.6c-10.5-2.8-12,4.2-12.1,5.1v0.1c-19.9,4.8-57.6,7-69.8,7.6l-0.1,0.4
		C105.7,13.3,139.6,11.8,158.1,9z M175,13.2c2.9-2.9,4.6-5.1,7.1-5.7c-0.1-1.1-0.2-2.2-0.5-3.3c-3.9,2.6-10.7,5.3-22.6,7.2
		c0,0-0.9,0.2-1.4,0.2c-4.9,0.7-10.7,1.3-17.5,1.7c-14.4,1.2-29.4,1.8-44.9,1.8C42.9,15.1-4.3,8-38.5-3.5L-38.6-3
		c33.8,13.3,84.8,21.7,141.8,21.7c20.6,0,40.5-1.1,59-3.1C162.3,15.6,169.6,18.6,175,13.2z"/>
	<path fill="#FFFFFF" d="M-50,1.3c-3.6,0-6.5,2.9-6.5,6.5V56c0,3.6,2.9,6.5,6.5,6.5h14.2c3.6,0,6.5-2.9,6.5-6.5V7.8
		c0-3.6-2.9-6.5-6.5-6.5C-35.8,1.3-50,1.3-50,1.3z"/>
	<g>
		<path fill="#006BB6" d="M51.2,64.2l-0.1,0.4c54,4.5,105.5,16.1,105.5,16.1l1-4.1C136.6,73,95.5,66.7,51.2,64.2z"/>
		<g>
			<path fill="#FFFFFF" d="M-35.6,3h-14.2c-2.7,0-4.8,2.2-4.8,4.8V56c0,2.6,2.2,4.8,4.8,4.8h14.2c2.7,0,4.8-2.1,4.8-4.8V7.9
				C-30.8,5.2-33,3-35.6,3z"/>
			<path fill="#006BB6" d="M-36.5,53.9c-0.5-2.1-2.2-3.4-1.3-4.1c-0.2-0.7-0.6-1.6-0.6-1.6c-2.6-1.5-4.8-3.9-5.2-4.3
				c-0.4-0.5-1.2-1-1.4-1.4c-0.6-0.6-3.7-4.9-4.4-6.5l-1.3-0.2c-0.6-2.3-2.4-4.3-2.5-6.6c0-0.9,0.4-2.8,0.5-3.1c0.2-0.4,0.9-1,0.9-1
				v-0.6c-2.7,0.1-1.9-0.2-2.4-1.3c-0.3-0.7-0.1-0.9,0-1.4c0.4-1.5,1.6-3.8,2.1-4.9c0.2-0.5,0.7-1.8,0.7-1.8c2-4.1,2.8-3.8,5.2-4
				l0.1-0.2c2.4-0.1,2-0.3,2.4-2.6c-0.4,0.1-0.5-0.7-0.5-0.7c-0.2-1.3,0.4-1.1,0.6-1.1c0-2.2,0.3-2.9,1.9-3.5h-8.1
				c-2.7,0-4.8,2.2-4.8,4.8V56c0,2.6,2.2,4.8,4.8,4.8h14.2c-1.6-0.9-0.7-2.6-0.6-5.7C-37,54.4-36.5,54.1-36.5,53.9"/>
			<path fill="#ED174C" d="M-39.1,12.9c0.4,0.3,0.6,0.5,1.1,0.7c1.2,0.7,2.6,2,2.4,6.5c0.3,1,0.5,2.9,0.8,3.5c0.6,1.2,1,2,1.2,3.1
				c0,0,0.2,1.8,0.4,1.9c1.2,0.3,0.9,0.4,1,0.6c0.2,0.2,0.9,0.2,0.9,0.9c0.2,0.3,0.4,0.7,0.5,1V7.9c0-2.7-2.1-4.8-4.8-4.8h-4.6
				c0.7,0.3,1.1,0.6,1.4,1.1c0.6,0,1.3,1.4,0.2,3.3c0.5,0.3,0.1,0.8-0.2,1.4c-0.1,0.2-0.2,0.5-0.5,0.5c-0.4,0.9-0.9,1.7-1.3,1.8
				c-0.1,0.1-0.2,0.5,0,0.7c0.6,0.2,1.2,0.6,1.6,0.9L-39.1,12.9L-39.1,12.9z"/>
			<path fill="#ED174C" d="M-34.8,37c-2.4,0-4.3-1.9-4.3-4.3c0-2,1.4-3.7,3.3-4.2c-0.5-1.2-1.5-3.2-1.8-3.9c-0.3-0.7-1-4.7-1.2-5.5
				c0-0.2-1.8,1.1-1.9,1.1c-0.1,0.1-1.3,3.4-1.4,3.5v0.6c0,0,0.6,0.1,1,1.2s1.4,5,1.4,5l-0.3,0.3c1.4,4.5,0.9,6.5,1.5,7.8
				c0.8,1.9,1,1.6,1.6,3.2c0.5,1.1,1,5.7,1.2,5.9c0.7,0.9,1.1,1.6,1.1,2.2c0,0.5-0.6,2.1-0.4,3c0.1,0.5,0.2,1.7,0.5,1.9
				c0,0,0.2,0.5,0.1,0.7l-0.1,0.2c0.4,1.4,1.7,3.9-0.4,5.1l0,0c2.3-0.3,4-2.3,4-4.7V34.3C-31.4,35.9-33,37-34.8,37z"/>
			<polygon fill="#FFFFFF" points="-49.2,50.3 -49.2,54.6 -49.3,54.6 -49.3,54.3 -50.5,50.3 -52.1,50.3 -52.1,57.5 -50.6,57.5 
				-50.6,53.1 -50.6,53.1 -50.6,53.3 -49.4,57.5 -47.8,57.5 -47.8,50.3 			"/>
			<path fill="#FFFFFF" d="M-44,53.7L-44,53.7c0.8-0.3,0.9-1,0.9-1.7c0-1.2-0.6-1.7-1.8-1.7h-2.4v7.2h2.4c1.5,0,1.9-0.9,1.9-2.1
				C-42.9,54.5-43.2,53.9-44,53.7z M-45.5,51.5h0.5c0.4,0,0.5,0.3,0.5,0.8s-0.1,0.8-0.6,0.8h-0.5L-45.5,51.5L-45.5,51.5z M-45,56.3
				h-0.5v-2h0.5c0.5,0,0.6,0.5,0.6,1C-44.4,56-44.5,56.3-45,56.3z"/>
			<path fill="#FFFFFF" d="M-39.3,50.3h-2.2l-1.3,7.2h1.7l0.2-1.6h1.2l0.1,1.6h1.7L-39.3,50.3z M-40.9,54.8l0.4-3.2v-0.2l0,0v0.2
				l0.4,3.2H-40.9z"/>
		</g>
		<path fill="#006BB6" d="M-27.3,57.6c-0.3,1.3-1,2.4-2,3.3H0.3c96.8,0,169.8,13.8,169.8,13.8l4-17.1H-27.3z"/>
	</g>
	<g>
		<path fill="#002D62" d="M1.7,22.2c-1.6-2.1-4.8-3.1-9.5-3.1c0,0-5,0-8.5,0h-4.5c0.7,0.4,1.1,1,0.8,2.1l-7.3,30.4
			c-0.2,1-1,1.7-1.8,2.1h10.3c-0.6-0.5-0.9-0.9-0.9-1.4c0-0.2,0-0.5,0.1-0.7l3.2-13.4l0.2,0.1c3.5,1.1,8.2,0.1,10.2-0.7
			c1.2-0.5,7.2-3.2,8.6-9c0.2-0.9,0.3-1.7,0.3-2.6C2.9,24.7,2.6,23.4,1.7,22.2z M-5.1,28.5c-1.6,6.7-6.8,7.2-9,7.2
			c-0.4,0-1.3-0.1-1.5-0.2h-0.2l3.3-13.9h2.2c2.1,0,3.6,0.6,4.5,1.8C-4.9,24.7-4.6,26.5-5.1,28.5z"/>
		<path fill="#002D62" d="M46.8,51.3c-0.4-1.8-6.4-30.4-6.4-30.4S27,40.6,21.6,48.3c-1.9,2-3.6,2.2-8,2.4c-2.1,0.1-4.2,0-5.1-0.1
			l6.4-26.4c0.3-1.1,0.9-1.7,1.7-2.1h-10c0.7,0.4,1.1,1,0.8,2.1L0.8,51.5c-0.2,1-1,1.7-1.8,2.1h24.9c-1.2-0.6-1.1-1.3-0.6-2.4
			c0.2-0.3,1.8-2.8,3.7-5.7h10.7c0.5,2.8,1,5.3,1,5.8c0,0.9-0.3,1.5-1.8,2.3h11.6C47.3,52.7,47.1,52.2,46.8,51.3z M28.9,42.7
			c1.3-1.9,6.4-9.7,6.4-9.7s1,5.2,1.9,9.7H28.9z M63.5,39.3l10.8-14c0.8-1.1,2.5-2.8,4.1-3.1h-7.3c1.3,0.2,1.1,1.5,0.4,2.4
			l-8.9,11.8L59,25.1c-0.7-2.1,0.2-2.4,1.3-2.9h-12c1.2,0.6,1.3,1.1,1.8,2.2l5.8,15L53,51.5c-0.3,1.2-1.3,1.7-2.1,2.1h10.8
			c-0.7-0.4-1.4-1.1-1.2-2.1L63.5,39.3z M149.7,34.9h-6.9l2.4-10.1c0,0,7.1,0.2,8.9,0.3c2.1,0.1,2.8,1,3,2.2l0.9-5.1h-21.1
			c0.7,0.4,1.2,1,0.9,2.1l-6.6,27.3c-0.3,1.2-0.9,1.5-1.9,2.1h10.1c-0.7-0.6-1.1-0.9-0.8-2.1l3.4-13.9h6.9c0.7,0,1.3,0.6,1.3,1.3
			l1.3-5.3C151.4,34.2,150.3,34.9,149.7,34.9z M170.1,24.4c4.5,0,6.3,3.7,6.6,6.4l1.6-7.7c-0.7-0.4-1.4-0.6-2.2-0.9
			c-0.8,0.2-1.7,0.4-2.6,0.4c-2.2,0.2-4.4,0-6.4-0.6c-3.7,1.1-7.7,3.7-8.9,8.7c-0.8,3.4,0,6,3.5,8.4c3.4,2.4,8.1,2.7,7.1,7.1
			c-0.5,2.3-2.7,5-6.9,5c-4.9,0-6.7-4.5-6.7-7.8l-1.9,8.8c1.5,0.6,4.5,1.9,8.8,1.9c6.5,0,12.5-4.2,13.9-10c1.6-6.7-2.7-8.4-6.5-10.2
			s-5.8-2.6-5.1-5.5C165,26.5,167,24.4,170.1,24.4z M94.2,21.5c-11.4-0.1-19.7,7.8-21.8,16.1C70.1,47.1,76,54,85.8,54
			c9,0,18.9-5.1,21.7-16.2C110.2,27.2,102.3,21.6,94.2,21.5z M99.4,38.1c-2.1,8.5-7.3,12.8-12.4,12.8s-8.8-4.4-6.4-13.9
			c2-8,7.2-12.5,12.5-12.5C98.6,24.5,101.6,29.3,99.4,38.1z M126.5,34.9h-6.9l2.5-10.1c0,0,7.1,0.2,8.9,0.3c2.1,0.1,2.8,1,3,2.2
			l0.9-5.2h-21c0.7,0.4,1.2,1,0.9,2.1l-6.6,27.3c-0.3,1.2-0.9,1.5-1.9,2.1h10.1c-0.7-0.6-1.1-0.9-0.8-2.1l3.4-13.9h6.9
			c0.7,0,1.3,0.6,1.3,1.3l1.3-5.3C128.2,34.2,127.2,34.9,126.5,34.9z"/>
	</g>
</g>
</svg>
